# File created by Blade
# Date/Time:  Tue Sep 30 19:11:31 2014
#---------------------------------------------------------
:version 1.10
:name HOM
:units
  mass 1.0
  length 1.000000
  angle deg
:documentation
     Acclaim Skeleton File
:root
   axis xyz
   order TX TY TZ RX RY RZ
   position 0.000000 0.000000 0.000000
   orientation 0 0 0
:bonedata
   begin
      id 1
      name Spine_dum
      direction 0.000000 1.000000 0.000000
      length 7.508948
      axis 0.0 0.0 0.0 xyz
   end
   begin
      id 2
      name LeftUpLeg_dum
      direction 1.000000 0.000000 0.000000
      length 3.000560
      axis 0.0 0.0 0.0 xyz
   end
   begin
      id 3
      name RightUpLeg_dum
      direction -1.000000 0.000000 0.000000
      length 3.000560
      axis 0.0 0.0 0.0 xyz
   end
   begin
      id 4
      name Spine
      direction 0.000000 1.000000 0.000000
      length 0.000000
      axis 0.0 0.0 0.0 xyz
      dof rx ry rz
   end
   begin
      id 5
      name Spine_dum1
      direction 0.000000 1.000000 0.000000
      length 13.861154
      axis 0.0 0.0 0.0 xyz
   end
   begin
      id 6
      name Spine_dum2
      direction 0.000000 1.000000 0.000000
      length 8.204781
      axis 0.0 0.0 0.0 xyz
   end
   begin
      id 7
      name Spine_dum3
      direction 0.000000 1.000000 0.000000
      length 8.204781
      axis 0.0 0.0 0.0 xyz
   end
   begin
      id 8
      name Head
      direction 0.000000 1.000000 0.000000
      length 4.527550
      axis 0.0 0.0 0.0 xyz
      dof rx ry rz
   end
   begin
      id 9
      name LeftShoulder
      direction 1.000000 0.000000 0.000000
      length 6.635956
      axis 0.0 0.0 -90.0 xyz
      dof rx ry rz
   end
   begin
      id 10
      name LeftArm
      direction 1.000000 0.000000 0.000000
      length 10.274218
      axis 0.0 0.0 -90.0 xyz
      dof rx ry rz
   end
   begin
      id 11
      name LeftForeArm
      direction 1.000000 0.000000 0.000000
      length 8.522147
      axis 0.0 0.0 -90.0 xyz
      dof ry rz rx
   end
   begin
      id 12
      name LeftHand
      direction 0.000000 0.000000 0.000000
      length 0.000000
      axis 0.0 0.0 -90.0 xyz
      dof rx ry rz
   end
   begin
      id 13
      name LeftHand_dum1
      direction 0.000000 0.000000 0.000000
      length 0.000000
      axis 0.0 0.0 -90.0 xyz
   end
   begin
      id 14
      name LeftHand_dum2
      direction 1.000000 0.000000 0.000000
      length 3.937000
      axis 0.0 0.0 -90.0 xyz
   end
   begin
      id 15
      name LeftHandThumb1
      direction 0.000000 0.000000 1.000000
      length 3.937000
      axis 0.0 0.0 -90.0 xyz
      dof rx rz ry
   end
   begin
      id 16
      name RightShoulder
      direction -1.000000 0.000000 0.000000
      length 6.635956
      axis 0.0 0.0 90.0 xyz
      dof rx ry rz
   end
   begin
      id 17
      name RightArm
      direction -1.000000 0.000000 0.000000
      length 10.274218
      axis 0.0 0.0 90.0 xyz
      dof rx ry rz
   end
   begin
      id 18
      name RightForeArm
      direction -1.000000 0.000000 0.000000
      length 8.522147
      axis 0.0 0.0 90.0 xyz
      dof ry rz rx
   end
   begin
      id 19
      name RightHand
      direction 0.000000 0.000000 0.000000
      length 0.000000
      axis 0.0 0.0 90.0 xyz
      dof rx ry rz
   end
   begin
      id 20
      name RightHand_dum1
      direction 0.000000 0.000000 0.000000
      length 0.000000
      axis 0.0 0.0 90.0 xyz
   end
   begin
      id 21
      name RightHand_dum2
      direction -1.000000 0.000000 0.000000
      length 3.937000
      axis 0.0 0.0 90.0 xyz
   end
   begin
      id 22
      name RightHandThumb1
      direction 0.000000 0.000000 1.000000
      length 3.937000
      axis 0.0 0.0 90.0 xyz
      dof rx rz ry
   end
   begin
      id 23
      name LeftUpLeg
      direction 0.000000 -1.000000 0.000000
      length 16.490845
      axis 0.0 0.0 0.0 xyz
      dof rx ry rz
   end
   begin
      id 24
      name LeftLeg
      direction 0.000000 -1.000000 0.000000
      length 14.556576
      axis 0.0 0.0 0.0 xyz
      dof rx ry rz
   end
   begin
      id 25
      name LeftFoot
      direction 0.000000 -0.258819 0.965926
      length 4.831116
      axis 15.0 0.0 0.0 xyz
      dof rx ry rz
   end
   begin
      id 26
      name LeftToeBase
      direction 0.000000 0.000000 1.000000
      length 2.952750
      axis 0.0 0.0 0.0 xyz
      dof rx ry rz
   end
   begin
      id 27
      name RightUpLeg
      direction 0.000000 -1.000000 0.000000
      length 16.490845
      axis 0.0 0.0 0.0 xyz
      dof rx ry rz
   end
   begin
      id 28
      name RightLeg
      direction 0.000000 -1.000000 0.000000
      length 14.556576
      axis 0.0 0.0 0.0 xyz
      dof rx ry rz
   end
   begin
      id 29
      name RightFoot
      direction 0.000000 -0.258819 0.965926
      length 4.831116
      axis 15.0 0.0 0.0 xyz
      dof rx ry rz
   end
   begin
      id 30
      name RightToeBase
      direction 0.000000 0.000000 1.000000
      length 2.952750
      axis 0.0 0.0 0.0 xyz
      dof rx ry rz
   end
:hierarchy
   begin
      root Spine_dum LeftUpLeg_dum RightUpLeg_dum
      Spine_dum Spine
      LeftUpLeg_dum LeftUpLeg
      RightUpLeg_dum RightUpLeg
      Spine Spine_dum1 Spine_dum2 Spine_dum3
      Spine_dum1 Head
      Spine_dum2 LeftShoulder
      Spine_dum3 RightShoulder
      LeftShoulder LeftArm
      LeftArm LeftForeArm
      LeftForeArm LeftHand
      LeftHand LeftHand_dum1 LeftHand_dum2
      LeftHand_dum1 LeftHandThumb1
      RightShoulder RightArm
      RightArm RightForeArm
      RightForeArm RightHand
      RightHand RightHand_dum1 RightHand_dum2
      RightHand_dum1 RightHandThumb1
      LeftUpLeg LeftLeg
      LeftLeg LeftFoot
      LeftFoot LeftToeBase
      RightUpLeg RightLeg
      RightLeg RightFoot
      RightFoot RightToeBase
   end

# File created by Blade
# Date/Time:  Thu Sep 25 15:31:15 2014
# Frame Rate: 120.000 fps
#------------------------------------------------------
:FULLY-SPECIFIED
:DEGREES
50
root 1.238241 32.877159 -4.106809 12.044648 1.293969 -1.956791
Spine -10.767310 5.611289 1.054896
Head -4.529346 -14.565948 10.980835
LeftShoulder -13.793267 23.533346 24.936697
LeftArm 21.884920 -25.754925 -34.900236
LeftForeArm 9.498128 -0.000000 15.805386
LeftHand -30.485292 -0.000000 0.710234
LeftHandThumb1 -26.253704 0.000000 33.147579
RightShoulder -18.497079 11.669623 -36.430419
RightArm -9.022725 7.913557 33.663747
RightForeArm -31.720151 0.000000 18.969830
RightHand -11.837123 -0.000000 4.616803
RightHandThumb1 -24.326973 -0.000000 -32.862282
LeftUpLeg -7.921119 13.733964 1.830585
LeftLeg 1.416305 -0.000000 -0.000000
LeftFoot -10.307089 0.241793 -19.705794
LeftToeBase 2.270019 -0.000000 -0.000000
RightUpLeg -9.590546 -4.215544 3.225355
RightLeg 4.408397 -0.000000 -0.000000
RightFoot -10.071151 -3.924881 -5.942839
RightToeBase 0.501464 -0.000000 -0.000000
51
root 1.224900 32.876818 -4.101229 12.071041 1.263235 -1.947436
Spine -10.780339 5.572194 1.031629
Head -4.392285 -14.856967 11.016893
LeftShoulder -13.772832 23.571138 24.773451
LeftArm 22.027239 -25.666996 -35.183090
LeftForeArm 9.566271 -0.000000 15.730671
LeftHand -30.320733 0.000000 0.671171
LeftHandThumb1 -26.253704 0.000000 33.147579
RightShoulder -18.600438 11.546459 -36.238597
RightArm -8.898009 7.768515 33.965936
RightForeArm -31.702897 0.000000 19.048433
RightHand -12.028710 -0.000000 4.291028
RightHandThumb1 -24.326973 -0.000000 -32.862282
LeftUpLeg -7.895742 13.657491 1.848144
LeftLeg 1.345137 -0.000000 -0.000000
LeftFoot -10.306034 0.357086 -19.772015
LeftToeBase 2.294618 -0.000000 -0.000000
RightUpLeg -9.602073 -4.199314 3.239218
RightLeg 4.380525 -0.000000 -0.000000
RightFoot -10.081466 -3.844330 -5.903263
RightToeBase 0.539957 -0.000000 -0.000000
52
root 1.211309 32.876477 -4.099890 12.104100 1.236889 -1.938635
Spine -10.782436 5.543227 1.017328
Head -4.256113 -15.189386 11.035778
LeftShoulder -13.777802 23.671116 24.619908
LeftArm 22.248839 -25.459345 -35.513812
LeftForeArm 9.543656 0.000000 15.699467
LeftHand -30.297411 -0.000000 0.610842
LeftHandThumb1 -26.253704 0.000000 33.147579
RightShoulder -18.704129 11.458623 -36.062292
RightArm -8.784800 7.529124 34.267520
RightForeArm -31.583689 -0.000000 19.067936
RightHand -12.001576 0.000000 4.294573
RightHandThumb1 -24.326973 -0.000000 -32.862282
LeftUpLeg -7.905614 13.577950 1.864818
LeftLeg 1.316746 -0.000000 -0.000000
LeftFoot -10.331258 0.456764 -19.840610
LeftToeBase 2.339857 -0.000000 -0.000000
RightUpLeg -9.660056 -4.124552 3.240911
RightLeg 4.450886 -0.000000 -0.000000
RightFoot -10.101135 -3.928968 -5.986219
RightToeBase 0.483743 -0.000000 -0.000000
53
root 1.200296 32.876364 -4.097513 12.130242 1.175541 -1.922747
Spine -10.788287 5.489388 1.005130
Head -4.072417 -15.448044 11.038725
LeftShoulder -13.739161 23.629583 24.497897
LeftArm 22.288131 -25.114698 -35.770816
LeftForeArm 9.504526 -0.000000 15.591434
LeftHand -30.053356 0.000000 0.504314
LeftHandThumb1 -26.253704 0.000000 33.147579
RightShoulder -18.739493 11.432440 -35.871612
RightArm -8.659940 7.373862 34.562883
RightForeArm -31.587337 -0.000000 18.986427
RightHand -11.636521 -0.000000 4.470058
RightHandThumb1 -24.326973 -0.000000 -32.862282
LeftUpLeg -7.865540 13.414538 1.876101
LeftLeg 1.214542 -0.000000 -0.000000
LeftFoot -10.362942 0.704151 -19.906077
LeftToeBase 2.380427 -0.000000 -0.000000
RightUpLeg -9.708689 -3.991503 3.230293
RightLeg 4.503953 -0.000000 -0.000000
RightFoot -10.117069 -4.032355 -6.071225
RightToeBase 0.505838 -0.000000 -0.000000
54
root 1.185734 32.876109 -4.096184 12.182966 1.178411 -1.886353
Spine -10.828120 5.379791 0.965353
Head -3.923569 -15.716110 11.074645
LeftShoulder -13.728589 23.650762 24.375626
LeftArm 22.444137 -24.738725 -36.041336
LeftForeArm 9.291337 0.000000 15.439604
LeftHand -30.203826 -0.000000 0.292301
LeftHandThumb1 -26.253704 0.000000 33.147579
RightShoulder -18.778126 11.361419 -35.734228
RightArm -8.582137 7.215419 34.981491
RightForeArm -31.607733 -0.000000 18.994316
RightHand -11.790304 -0.000000 4.433033
RightHandThumb1 -24.326973 -0.000000 -32.862282
LeftUpLeg -7.727638 12.625255 1.967752
LeftLeg 0.884390 -0.000000 -0.000000
LeftFoot -10.444246 1.417907 -20.211864
LeftToeBase 2.389283 -0.000000 -0.000000
RightUpLeg -9.766666 -3.924303 3.212373
RightLeg 4.523242 -0.000000 -0.000000
RightFoot -10.141433 -4.082599 -6.066447
RightToeBase 0.471631 -0.000000 -0.000000
55
root 1.164157 32.873429 -4.087517 12.152523 1.176422 -1.895428
Spine -10.773645 5.279283 0.960941
Head -3.800501 -16.020653 11.151641
LeftShoulder -13.700448 23.685107 24.314254
LeftArm 22.622011 -24.418135 -36.427830
LeftForeArm 9.084181 -0.000000 15.312521
LeftHand -30.281066 0.000000 0.067541
LeftHandThumb1 -26.253704 0.000000 33.147579
RightShoulder -18.891824 11.256932 -35.561306
RightArm -8.314660 7.044717 35.419162
RightForeArm -31.726395 -0.000000 18.759882
RightHand -11.764207 0.000000 4.530400
RightHandThumb1 -24.326973 -0.000000 -32.862282
LeftUpLeg -7.673959 12.552849 2.036600
LeftLeg 0.878098 -0.000000 -0.000000
LeftFoot -10.488623 1.485816 -20.260194
LeftToeBase 2.367991 -0.000000 -0.000000
RightUpLeg -9.692415 -3.856293 3.247676
RightLeg 4.452692 -0.000000 -0.000000
RightFoot -10.146001 -4.059266 -6.021991
RightToeBase 0.506584 -0.000000 -0.000000
56
root 1.149144 32.873636 -4.087999 12.180693 1.117944 -1.901236
Spine -10.775871 5.239471 0.971716
Head -3.652582 -16.297567 11.149373
LeftShoulder -13.648947 23.753002 24.202943
LeftArm 22.783078 -24.067073 -36.799583
LeftForeArm 8.843734 0.000000 15.190399
LeftHand -30.251001 -0.000000 -0.003521
LeftHandThumb1 -26.253704 0.000000 33.147579
RightShoulder -18.915092 11.170542 -35.373185
RightArm -8.152650 6.920419 35.792587
RightForeArm -31.808524 -0.000000 18.540812
RightHand -11.670456 0.000000 4.677754
RightHandThumb1 -24.326973 -0.000000 -32.862282
LeftUpLeg -7.680987 12.431590 2.072576
LeftLeg 0.858032 -0.000000 -0.000000
LeftFoot -10.550070 1.667564 -20.335665
LeftToeBase 2.444704 -0.000000 -0.000000
RightUpLeg -9.741313 -3.706126 3.251029
RightLeg 4.504941 -0.000000 -0.000000
RightFoot -10.138681 -4.167413 -6.070800
RightToeBase 0.468827 -0.000000 -0.000000
